<svg width="27" height="35" viewBox="0 0 27 35" fill="none" xmlns="http://www.w3.org/2000/svg">
<path d="M0.59998 12.9714C0.59998 5.97043 6.37811 0.299805 13.5 0.299805C20.6219 0.299805 26.4 5.97043 26.4 12.9714C26.4 20.9868 18.324 30.5947 14.9512 34.2564C14.1584 35.1164 12.8348 35.1164 12.042 34.2564C8.6692 30.5947 0.593262 20.9868 0.593262 12.9714H0.59998ZM13.5 17.4998C15.8717 17.4998 17.8 15.5715 17.8 13.1998C17.8 10.8281 15.8717 8.89981 13.5 8.89981C11.1283 8.89981 9.19998 10.8281 9.19998 13.1998C9.19998 15.5715 11.1283 17.4998 13.5 17.4998Z" fill="#4D7298"/>
</svg>
