<svg width="32" height="32" viewBox="0 0 32 32" fill="none" xmlns="http://www.w3.org/2000/svg">
<path d="M10.312 2.28441C9.84293 1.16223 8.6198 0.568476 7.45605 0.883164L7.12949 0.972226C3.29386 2.01723 0.016364 5.7341 0.972302 10.2585C3.17511 20.6491 11.3511 28.825 21.7417 31.0278C26.272 31.9897 29.9829 28.7063 31.0279 24.8707L31.117 24.5441C31.4376 23.3744 30.8379 22.1513 29.7217 21.6882L23.9445 19.2835C22.9648 18.8738 21.8307 19.1588 21.1539 19.9841L18.862 22.7866C14.6879 20.7144 11.3273 17.2469 9.39761 12.9897L12.022 10.8522C12.8473 10.1813 13.1264 9.04723 12.7226 8.0616L10.312 2.28441Z" fill="#4D7298"/>
</svg>
